<svg width="1920" height="223" viewBox="0 0 1920 223" fill="none" xmlns="http://www.w3.org/2000/svg">
<path d="M824.74 150.04C798.86 150.04 767.029 181.308 765.681 182.627C751.153 198.366 736.449 212.358 714.828 212.358C691.126 212.358 663.281 183.045 662.998 182.754L660.585 180.307C645.236 164.741 630.737 150.04 604.915 150.04C579.035 150.04 547.204 181.308 545.856 182.627C531.328 198.366 516.624 212.358 495.003 212.358C471.301 212.358 443.456 183.045 443.173 182.754L440.897 180.525C423.369 163.495 409.535 150.04 385.1 150.04C359.21 150.04 327.379 181.308 326.04 182.627C311.503 198.366 296.799 212.358 275.188 212.358C251.486 212.358 223.641 183.045 223.358 182.754L220.925 180.289C205.586 164.732 191.087 150.049 165.275 150.049C139.385 150.049 107.554 181.317 106.215 182.636C91.6777 198.375 76.9739 212.367 55.3626 212.367C33.8491 212.367 14.2407 201.359 4.17759 183.637C2.92703 181.417 -0.0332732 180.571 -2.42692 181.735C-4.8108 182.918 -5.71942 185.666 -4.45909 187.885C7.304 208.591 30.2244 221.464 55.3626 221.464C81.0968 221.464 98.1748 205.289 113.475 188.722C121.681 180.598 147.289 159.146 165.275 159.146C186.798 159.146 198.679 171.191 213.725 186.439L216.089 188.831C217.261 190.078 247.099 221.455 275.188 221.455C300.922 221.455 318 205.28 333.3 188.713C341.506 180.589 367.114 159.137 385.1 159.137C405.363 159.137 416.696 170.145 433.843 186.812L435.982 188.895C437.086 190.078 466.924 221.455 495.013 221.455C520.757 221.455 537.844 205.28 553.125 188.713C561.331 180.598 586.939 159.146 604.925 159.146C626.458 159.146 638.348 171.201 653.404 186.466L655.749 188.841C656.921 190.087 686.759 221.464 714.838 221.464C740.582 221.464 757.669 205.289 772.95 188.722C781.156 180.607 806.764 159.156 824.75 159.156C845.384 159.156 864.612 169.508 874.929 186.175C876.277 188.358 879.257 189.113 881.612 187.849C883.947 186.593 884.748 183.81 883.409 181.635C871.324 162.139 848.853 150.04 824.74 150.04Z" fill="#355C7D"/>
<path d="M1705.77 150.173C1679.89 150.173 1648.06 181.441 1646.71 182.76C1632.18 198.498 1617.48 212.49 1595.85 212.49C1572.15 212.49 1544.31 183.178 1544.02 182.887L1541.61 180.44C1526.26 164.874 1511.76 150.173 1485.94 150.173C1460.06 150.173 1428.23 181.441 1426.88 182.76C1412.35 198.498 1397.65 212.49 1376.03 212.49C1352.33 212.49 1324.48 183.178 1324.2 182.887L1321.92 180.658C1304.4 163.628 1290.56 150.173 1266.13 150.173C1240.24 150.173 1208.41 181.441 1207.07 182.76C1192.53 198.498 1177.83 212.49 1156.21 212.49C1132.51 212.49 1104.67 183.178 1104.38 182.887L1101.95 180.422C1086.61 164.865 1072.11 150.182 1046.3 150.182C1020.41 150.182 988.581 181.45 987.242 182.769C972.704 198.508 958.001 212.499 936.389 212.499C914.876 212.499 895.267 201.492 885.204 183.77C883.954 181.55 880.993 180.704 878.6 181.868C876.216 183.051 875.307 185.798 876.568 188.018C888.331 208.724 911.251 221.597 936.389 221.597C962.123 221.597 979.201 205.422 994.501 188.855C1002.71 180.731 1028.32 159.279 1046.3 159.279C1067.83 159.279 1079.71 171.324 1094.75 186.572L1097.12 188.964C1098.29 190.211 1128.13 221.588 1156.21 221.588C1181.95 221.588 1199.03 205.413 1214.33 188.846C1222.53 180.722 1248.14 159.27 1266.13 159.27C1286.39 159.27 1297.72 170.278 1314.87 186.945L1317.01 189.028C1318.11 190.211 1347.95 221.588 1376.04 221.588C1401.78 221.588 1418.87 205.413 1434.15 188.846C1442.36 180.731 1467.97 159.279 1485.95 159.279C1507.48 159.279 1519.37 171.333 1534.43 186.599L1536.78 188.973C1537.95 190.22 1567.79 221.597 1595.86 221.597C1621.61 221.597 1638.7 205.422 1653.98 188.855C1662.18 180.74 1687.79 159.288 1705.78 159.288C1726.41 159.288 1745.64 169.641 1755.96 186.308C1757.3 188.491 1760.28 189.246 1762.64 187.982C1764.97 186.726 1765.77 183.942 1764.44 181.768C1752.35 162.272 1729.88 150.173 1705.77 150.173Z" fill="#355C7D"/>
<path d="M2586.77 151.104C2560.89 151.104 2529.06 182.372 2527.71 183.691C2513.18 199.43 2498.48 213.422 2476.85 213.422C2453.15 213.422 2425.31 184.109 2425.02 183.818L2422.61 181.371C2407.26 165.805 2392.76 151.104 2366.94 151.104C2341.06 151.104 2309.23 182.372 2307.88 183.691C2293.35 199.43 2278.65 213.422 2257.03 213.422C2233.33 213.422 2205.48 184.109 2205.2 183.818L2202.92 181.589C2185.4 164.559 2171.56 151.104 2147.13 151.104C2121.24 151.104 2089.41 182.372 2088.07 183.691C2073.53 199.43 2058.83 213.422 2037.21 213.422C2013.51 213.422 1985.67 184.109 1985.38 183.818L1982.95 181.353C1967.61 165.796 1953.11 151.113 1927.3 151.113C1901.41 151.113 1869.58 182.381 1868.24 183.7C1853.7 199.439 1839 213.431 1817.39 213.431C1795.88 213.431 1776.27 202.423 1766.2 184.701C1764.95 182.481 1761.99 181.635 1759.6 182.799C1757.22 183.982 1756.31 186.73 1757.57 188.949C1769.33 209.655 1792.25 222.528 1817.39 222.528C1843.12 222.528 1860.2 206.353 1875.5 189.786C1883.71 181.662 1909.32 160.21 1927.3 160.21C1948.83 160.21 1960.71 172.255 1975.75 187.503L1978.12 189.895C1979.29 191.142 2009.13 222.519 2037.21 222.519C2062.95 222.519 2080.03 206.344 2095.33 189.777C2103.53 181.653 2129.14 160.201 2147.13 160.201C2167.39 160.201 2178.72 171.209 2195.87 187.876L2198.01 189.959C2199.11 191.142 2228.95 222.519 2257.04 222.519C2282.78 222.519 2299.87 206.344 2315.15 189.777C2323.36 181.662 2348.97 160.21 2366.95 160.21C2388.48 160.21 2400.37 172.265 2415.43 187.53L2417.78 189.905C2418.95 191.151 2448.79 222.528 2476.86 222.528C2502.61 222.528 2519.7 206.353 2534.98 189.786C2543.18 181.671 2568.79 160.219 2586.78 160.219C2607.41 160.219 2626.64 170.572 2636.96 187.239C2638.3 189.422 2641.28 190.177 2643.64 188.913C2645.97 187.657 2646.77 184.874 2645.44 182.699C2633.35 163.203 2610.88 151.104 2586.77 151.104Z" fill="#355C7D"/>
<path d="M1586.46 170.625C1591.15 172.695 1605.39 176.676 1606.11 183.376C1606.35 185.634 1604.38 186.134 1602.43 186.514C1598.88 187.206 1595.13 186.91 1591.5 186.91C1585.77 186.91 1582.6 177.566 1582.12 173.141C1581.6 168.262 1587.41 163.863 1592.26 163.529C1598.29 163.113 1602.81 164.058 1606.68 168.702C1609.98 172.644 1609.08 180.194 1607.11 184.478C1605.55 187.867 1602.93 191.007 1599.31 192.507C1594.04 194.685 1587.94 193.632 1582.39 194.571C1580.01 194.974 1575 195.976 1572.92 194.43C1568.13 190.858 1565.22 186.499 1561.87 181.821" stroke="#355C7D" stroke-width="30" stroke-linecap="round"/>
<path d="M1591.93 172.152C1582.43 170.383 1575.32 163.305 1568.19 157.789C1566.67 156.62 1564.86 155.632 1563.24 154.595C1562.26 153.972 1561.35 152.361 1560.02 152.361C1559.34 152.361 1562.25 157.712 1562.69 158.44C1564.06 160.711 1564.4 163.207 1565.27 165.649C1565.99 167.663 1565.62 167.657 1564.6 168.844C1563.02 170.691 1562.75 175.024 1559.02 172.661C1555.73 170.58 1553.05 168.235 1550.27 165.649C1548.2 163.718 1545.99 162.358 1544.11 160.221C1543.04 159.001 1542.99 159.143 1544.38 160.221C1546.36 161.754 1548.38 163.207 1550.36 164.744C1553.6 167.259 1557.2 169.531 1559.68 172.774C1560.88 174.337 1561.67 176.496 1562.84 177.863C1565.5 180.954 1554.58 174.326 1552.55 170.851C1551.12 168.415 1547.66 166.52 1545.78 164.264C1544.32 162.513 1542.06 159.931 1540.01 158.807C1538.17 157.8 1536.79 156.242 1535.06 155.132C1534.33 154.662 1533.07 154.349 1532.48 153.718C1531.56 152.738 1535.05 154.854 1536.06 155.754C1539.88 159.152 1544.96 161.33 1548.21 165.31C1550.49 168.115 1555.1 171.068 1556.4 174.413C1556.95 175.811 1558.51 176.502 1559.02 177.863C1559.58 179.389 1560.78 182.272 1560.78 179.304C1560.78 172.734 1560.69 164.76 1564.18 158.92C1565.05 157.459 1568.14 157.394 1569.58 157.394C1574.22 157.394 1578.85 157.394 1583.49 157.394C1590.49 157.394 1597.49 157.394 1604.5 157.394" stroke="#355C7D" stroke-width="30" stroke-linecap="round"/>
<path d="M1560.23 174.187C1554.04 175.204 1547.35 170.154 1542.5 167.572C1540.32 166.411 1539.2 164.987 1538.25 162.992C1537.69 161.827 1537.04 157.794 1536.18 157.394" stroke="#355C7D" stroke-width="30" stroke-linecap="round"/>
<path d="M1550.94 154.34C1544.87 153.552 1538.88 152.416 1532.93 151.033C1530.97 150.576 1528.71 150.325 1526.89 149.478C1524.84 148.522 1521.55 147.213 1519.55 146.679C1517.63 146.168 1516.24 144.558 1514.32 143.767C1512.48 143.005 1510.21 142.757 1508.31 142.014C1503.75 140.226 1499.19 140.042 1494.38 139.045C1491.74 138.5 1489.21 138.198 1486.45 138.056C1484.78 137.969 1481.88 137.708 1480.44 137.038" stroke="#355C7D" stroke-width="30" stroke-linecap="round"/>
<path d="M1608.87 151.796C1616.44 151.796 1624.01 151.796 1631.58 151.796C1641.13 151.796 1650.36 150.537 1659.82 149.647C1665.77 149.088 1671.78 147.879 1677.73 147.725C1678.97 147.693 1682.59 148.302 1683.32 147.216C1683.92 146.317 1687.56 145.746 1688.66 145.689C1690.78 145.579 1687.3 145.689 1686.78 145.689C1684.13 145.689 1681.48 145.689 1678.82 145.689C1673.22 145.689 1667.76 147.725 1662.43 147.725" stroke="#355C7D" stroke-width="30" stroke-linecap="round"/>
<path d="M1682.1 144.162C1677.71 145.125 1673.57 147.869 1669.53 149.647C1667.17 150.691 1664.77 151.723 1662.43 152.814C1658.4 154.689 1653.66 155.094 1650.53 158.016C1649.3 159.158 1648.87 160.978 1647.79 162.087C1646.76 163.156 1645.54 164.828 1644.82 166.045C1644.04 167.347 1640.79 169.715 1639.35 170.229C1637.25 170.983 1635.09 173.69 1633.46 175.205C1626.66 181.538 1620.55 187.766 1612.15 192.112C1605.37 195.617 1597.5 200.698 1589.74 197.088" stroke="#355C7D" stroke-width="30" stroke-linecap="round"/>
<path d="M1586.46 198.614C1587.13 198.692 1590.51 200.207 1590.96 200.537C1592.15 201.424 1597.21 200.65 1598.73 200.65C1603.25 200.65 1607.44 199.866 1611.33 197.851C1617.57 194.623 1624.74 192.234 1629.21 187.023C1631.39 184.491 1633.24 181.622 1635.41 179.022C1638.97 174.753 1641.05 169.198 1644.09 164.745C1647.02 160.461 1650.81 156.303 1655.87 153.945C1657.93 152.988 1660.4 152.219 1662.73 151.824C1666.97 151.107 1670.73 148.178 1674.45 146.198" stroke="#355C7D" stroke-width="30" stroke-linecap="round"/>
<path d="M1649.31 167.572C1651.6 165.171 1652.26 162.057 1654.66 159.825C1655.58 158.961 1656.63 156.365 1656.93 155.104C1657.27 153.699 1658.99 152.237 1660 151.033C1661.88 148.782 1664.74 147.683 1667.23 146.198C1670.29 144.366 1674.45 144.401 1677.52 142.862C1680.35 141.443 1683.55 140.696 1686.48 139.469C1691.74 137.262 1697.65 135.45 1703.42 135.002" stroke="#355C7D" stroke-width="30" stroke-linecap="round"/>
<path d="M1691.39 143.144C1695.84 143.144 1700.04 141.618 1704.51 141.618C1706.88 141.618 1709.25 141.618 1711.62 141.618C1713.91 141.618 1715.96 142.552 1718.3 142.636C1720.42 142.712 1723.93 143.167 1725.83 144.049C1728.64 145.36 1732.02 145.162 1734.99 146.085C1739.62 147.522 1743.61 149.672 1747.93 151.683C1753.51 154.281 1757.1 159.036 1761.35 162.991C1765.18 166.555 1768.54 170.478 1772.28 173.961C1775.94 177.374 1777.91 182.261 1781.69 185.779C1783.57 187.531 1785.95 188.576 1787.89 190.189C1790.96 192.75 1795.21 193.513 1798.51 195.561" stroke="#355C7D" stroke-width="30" stroke-linecap="round"/>
<path d="M1914.37 145.18C1908.25 145.548 1901.31 145.522 1895.37 147.103C1894.46 147.344 1892.55 147.725 1891.69 147.725C1889.84 147.725 1886.56 148.473 1884.86 149.138C1882.94 149.893 1878.55 149.76 1876.39 149.76C1873.28 149.76 1870.33 150.778 1867.13 150.778C1857.91 150.778 1848.62 151.796 1839.38 151.796C1826.73 151.796 1814.17 151.287 1801.55 151.287C1795.16 151.287 1788.78 151.287 1782.39 151.287C1778.34 151.287 1785.04 156.641 1785.94 157.394C1787.29 158.52 1788.24 159.762 1789.52 160.956C1790.4 161.771 1791.96 163.358 1792.5 164.235C1793.88 166.489 1797.15 168.16 1799.48 169.607C1802.98 171.776 1806.72 171.42 1810.53 172.406C1816.01 173.823 1823.44 172.661 1829.12 172.661C1833.74 172.661 1840.4 173.831 1844.84 172.547C1848.17 171.585 1852.08 171.527 1855.35 170.342C1859.09 168.989 1863.9 169.303 1867.37 167.685C1869.52 166.684 1872.11 166.871 1874.2 165.79C1875.31 165.22 1880.83 163.5 1879.4 163.5C1874.62 163.5 1869.23 166.445 1864.94 168.307C1861.53 169.788 1858.14 171.218 1854.8 172.774C1850.28 174.881 1846.19 176.761 1843.02 180.548C1841.45 182.43 1840.53 184.217 1838.41 185.496C1837.09 186.291 1835.89 187.8 1834.46 188.719C1832.71 189.85 1830.48 190.473 1828.54 191.264C1820.77 194.428 1794.74 193.525 1803.22 193.525C1807.39 193.525 1811.24 195.958 1815.45 196.07C1818.63 196.154 1821.57 196.579 1824.74 196.579C1827.59 196.579 1830.34 196.773 1833.06 195.957C1834.84 195.424 1839.44 194.702 1840.05 193.016" stroke="#355C7D" stroke-width="30" stroke-linecap="round"/>
<path d="M1887.05 153.831C1889.23 153.831 1891.42 153.831 1893.61 153.831C1894.96 153.831 1896.3 153.831 1893.88 153.831C1891.74 153.831 1889.03 154.071 1886.93 154.453C1878.99 155.9 1873.7 159.167 1867.68 163.755C1865.97 165.058 1863.8 166.255 1862.45 167.826C1861.76 168.635 1860.41 168.895 1860.27 170.116C1860.24 170.376 1859.24 172.326 1859.05 172.547C1856.41 175.622 1855.94 180.671 1852.34 183.347C1850.81 184.488 1850.17 187.019 1847.97 187.927C1846.03 188.732 1844.31 190.512 1842.48 191.49C1837.7 194.032 1832.95 195.498 1827.6 196.974C1818.42 199.508 1808.97 198.614 1799.6 198.614" stroke="#355C7D" stroke-width="30" stroke-linecap="round"/>
<path d="M1808.35 203.194C1816.2 206.444 1827.06 204.792 1833.49 199.406C1837.73 195.853 1841.57 191.491 1846.06 188.21C1848.4 186.496 1850.72 183.976 1853.44 182.81C1854.95 182.162 1855.99 180.76 1857.54 180.04C1859.36 179.189 1861.05 177.884 1862.58 176.619C1866.07 173.714 1871 171.745 1873.93 168.335C1875.64 166.348 1878.05 164.143 1879.94 162.483C1882.99 159.802 1885.97 156.871 1888.96 154.086C1892.6 150.698 1897.28 148.191 1900.16 144.162" stroke="#355C7D" stroke-width="30" stroke-linecap="round"/>
<path d="M1147.02 170.605C1151.71 172.676 1165.95 176.656 1166.67 183.356C1166.91 185.614 1164.94 186.115 1162.99 186.494C1159.44 187.186 1155.69 186.89 1152.06 186.89C1146.33 186.89 1143.16 177.547 1142.68 173.122C1142.16 168.242 1147.97 163.844 1152.82 163.509C1158.85 163.094 1163.37 164.039 1167.25 168.683C1170.54 172.625 1169.64 180.175 1167.67 184.459C1166.11 187.847 1163.49 190.988 1159.87 192.488C1154.61 194.666 1148.5 193.613 1142.96 194.552C1140.57 194.955 1135.56 195.956 1133.48 194.41C1128.69 190.838 1125.78 186.479 1122.43 181.801" stroke="#355C7D" stroke-width="30" stroke-linecap="round"/>
<path d="M1152.49 172.132C1142.99 170.363 1135.88 163.286 1128.75 157.77C1127.23 156.6 1125.43 155.613 1123.8 154.575C1122.82 153.953 1121.91 152.342 1120.58 152.342C1119.9 152.342 1122.81 157.692 1123.25 158.42C1124.62 160.692 1124.96 163.188 1125.83 165.63C1126.55 167.644 1126.18 167.637 1125.16 168.824C1123.58 170.671 1123.31 175.004 1119.58 172.641C1116.29 170.56 1113.61 168.216 1110.83 165.63C1108.76 163.698 1106.55 162.339 1104.67 160.201C1103.6 158.981 1103.55 159.123 1104.94 160.201C1106.92 161.735 1108.94 163.187 1110.92 164.725C1114.16 167.239 1117.76 169.512 1120.24 172.754C1121.44 174.317 1122.23 176.477 1123.4 177.843C1126.06 180.934 1115.15 174.307 1113.11 170.832C1111.68 168.396 1108.22 166.5 1106.34 164.244C1104.88 162.493 1102.62 159.912 1100.57 158.788C1098.73 157.781 1097.36 156.223 1095.62 155.112C1094.89 154.642 1093.63 154.329 1093.04 153.699C1092.12 152.718 1095.61 154.834 1096.62 155.734C1100.44 159.133 1105.53 161.31 1108.77 165.29C1111.05 168.096 1115.66 171.049 1116.97 174.394C1117.51 175.792 1119.07 176.482 1119.58 177.843C1120.14 179.37 1121.34 182.253 1121.34 179.285C1121.34 172.715 1121.25 164.74 1124.74 158.901C1125.61 157.44 1128.7 157.374 1130.14 157.374C1134.78 157.374 1139.41 157.374 1144.05 157.374C1151.05 157.374 1158.06 157.374 1165.06 157.374" stroke="#355C7D" stroke-width="30" stroke-linecap="round"/>
<path d="M1120.79 174.168C1114.6 175.185 1107.91 170.134 1103.06 167.552C1100.88 166.391 1099.76 164.968 1098.81 162.972C1098.25 161.808 1097.6 157.774 1096.74 157.374" stroke="#355C7D" stroke-width="30" stroke-linecap="round"/>
<path d="M1111.5 154.321C1105.43 153.533 1099.44 152.397 1093.5 151.013C1091.54 150.556 1089.28 150.306 1087.45 149.458C1085.4 148.502 1082.11 147.193 1080.11 146.659C1078.19 146.148 1076.8 144.538 1074.88 143.747C1073.04 142.985 1070.77 142.737 1068.87 141.994C1064.31 140.206 1059.75 140.022 1054.94 139.026C1052.3 138.48 1049.77 138.179 1047.01 138.036C1045.34 137.949 1042.44 137.688 1041 137.018" stroke="#355C7D" stroke-width="30" stroke-linecap="round"/>
<path d="M1169.43 151.776C1177 151.776 1184.57 151.776 1192.14 151.776C1201.7 151.776 1210.92 150.517 1220.38 149.627C1226.33 149.068 1232.34 147.859 1238.29 147.705C1239.53 147.673 1243.15 148.282 1243.88 147.196C1244.48 146.298 1248.12 145.726 1249.22 145.669C1251.34 145.56 1247.86 145.669 1247.34 145.669C1244.69 145.669 1242.04 145.669 1239.39 145.669C1233.78 145.669 1228.32 147.705 1222.99 147.705" stroke="#355C7D" stroke-width="30" stroke-linecap="round"/>
<path d="M1242.66 144.143C1238.27 145.106 1234.13 147.849 1230.09 149.628C1227.73 150.672 1225.33 151.704 1222.99 152.794C1218.96 154.67 1214.23 155.075 1211.09 157.996C1209.86 159.139 1209.43 160.958 1208.36 162.067C1207.32 163.136 1206.11 164.809 1205.38 166.025C1204.6 167.327 1201.35 169.695 1199.91 170.21C1197.81 170.963 1195.65 173.67 1194.02 175.186C1187.22 181.519 1181.11 187.746 1172.71 192.092C1165.93 195.597 1158.06 200.679 1150.3 197.068" stroke="#355C7D" stroke-width="30" stroke-linecap="round"/>
<path d="M1147.02 198.595C1147.69 198.672 1151.07 200.187 1151.52 200.517C1152.71 201.404 1157.77 200.631 1159.29 200.631C1163.81 200.631 1168 199.846 1171.89 197.832C1178.13 194.603 1185.3 192.214 1189.77 187.003C1191.95 184.472 1193.8 181.602 1195.97 179.002C1199.53 174.734 1201.61 169.178 1204.65 164.725C1207.58 160.441 1211.37 156.283 1216.43 153.925C1218.49 152.969 1220.96 152.2 1223.29 151.805C1227.53 151.088 1231.29 148.158 1235.01 146.179" stroke="#355C7D" stroke-width="30" stroke-linecap="round"/>
<path d="M1209.87 167.552C1212.17 165.152 1212.82 162.038 1215.22 159.806C1216.15 158.941 1217.19 156.346 1217.49 155.084C1217.83 153.679 1219.55 152.218 1220.56 151.013C1222.44 148.763 1225.31 147.664 1227.79 146.178C1230.85 144.346 1235.01 144.381 1238.08 142.842C1240.91 141.424 1244.11 140.676 1247.04 139.45C1252.3 137.243 1258.21 135.43 1263.98 134.983" stroke="#355C7D" stroke-width="30" stroke-linecap="round"/>
<path d="M1251.96 143.125C1256.4 143.125 1260.6 141.598 1265.07 141.598C1267.44 141.598 1269.81 141.598 1272.18 141.598C1274.47 141.598 1276.52 142.532 1278.86 142.616C1280.98 142.692 1284.49 143.148 1286.39 144.03C1289.2 145.34 1292.58 145.142 1295.56 146.065C1300.19 147.502 1304.17 149.652 1308.49 151.663C1314.07 154.261 1317.66 159.017 1321.91 162.972C1325.74 166.535 1329.1 170.459 1332.84 173.941C1336.51 177.355 1338.47 182.241 1342.25 185.759C1344.13 187.511 1346.51 188.557 1348.45 190.17C1351.52 192.73 1355.77 193.494 1359.07 195.541" stroke="#355C7D" stroke-width="30" stroke-linecap="round"/>
<path d="M1474.93 145.161C1468.81 145.528 1461.87 145.502 1455.93 147.083C1455.02 147.325 1453.11 147.705 1452.25 147.705C1450.4 147.705 1447.12 148.453 1445.42 149.119C1443.5 149.874 1439.11 149.741 1436.95 149.741C1433.84 149.741 1430.89 150.758 1427.69 150.758C1418.48 150.758 1409.18 151.776 1399.94 151.776C1387.29 151.776 1374.73 151.267 1362.11 151.267C1355.72 151.267 1349.34 151.267 1342.95 151.267C1338.9 151.267 1345.61 156.622 1346.5 157.374C1347.85 158.5 1348.8 159.743 1350.09 160.936C1350.96 161.751 1352.52 163.338 1353.06 164.216C1354.44 166.47 1357.71 168.141 1360.04 169.588C1363.54 171.756 1367.28 171.4 1371.1 172.387C1376.57 173.803 1384 172.641 1389.68 172.641C1394.3 172.641 1400.96 173.812 1405.41 172.528C1408.74 171.566 1412.64 171.508 1415.91 170.323C1419.65 168.969 1424.46 169.283 1427.93 167.665C1430.08 166.664 1432.68 166.852 1434.77 165.771C1435.87 165.2 1441.39 163.481 1439.96 163.481C1435.18 163.481 1429.79 166.426 1425.5 168.287C1422.1 169.769 1418.71 171.198 1415.36 172.754C1410.84 174.861 1406.75 176.741 1403.58 180.529C1402.01 182.411 1401.09 184.198 1398.97 185.477C1397.65 186.272 1396.45 187.781 1395.02 188.7C1393.27 189.83 1391.04 190.454 1389.1 191.244C1381.33 194.409 1355.3 193.506 1363.78 193.506C1367.95 193.506 1371.8 195.938 1376.01 196.05C1379.19 196.135 1382.13 196.559 1385.31 196.559C1388.15 196.559 1390.9 196.753 1393.62 195.937C1395.4 195.405 1400 194.682 1400.61 192.997" stroke="#355C7D" stroke-width="30" stroke-linecap="round"/>
<path d="M1447.61 153.812C1449.79 153.812 1451.98 153.812 1454.17 153.812C1455.52 153.812 1456.86 153.812 1454.44 153.812C1452.3 153.812 1449.59 154.051 1447.49 154.434C1439.55 155.88 1434.26 159.148 1428.24 163.735C1426.53 165.039 1424.36 166.235 1423.01 167.806C1422.32 168.616 1420.97 168.876 1420.83 170.097C1420.8 170.357 1419.8 172.307 1419.61 172.528C1416.97 175.603 1416.5 180.652 1412.9 183.328C1411.37 184.468 1410.73 187 1408.53 187.908C1406.59 188.712 1404.87 190.492 1403.04 191.47C1398.26 194.013 1393.51 195.478 1388.16 196.955C1378.98 199.488 1369.53 198.595 1360.17 198.595" stroke="#355C7D" stroke-width="30" stroke-linecap="round"/>
<path d="M1368.91 203.175C1376.76 206.424 1387.62 204.773 1394.05 199.386C1398.29 195.834 1402.13 191.472 1406.62 188.191C1408.96 186.476 1411.29 183.956 1414 182.791C1415.51 182.142 1416.55 180.74 1418.1 180.02C1419.92 179.169 1421.61 177.864 1423.14 176.599C1426.63 173.695 1431.56 171.726 1434.49 168.315C1436.2 166.329 1438.62 164.124 1440.5 162.463C1443.55 159.783 1446.53 156.852 1449.52 154.066C1453.16 150.679 1457.84 148.172 1460.72 144.143" stroke="#355C7D" stroke-width="30" stroke-linecap="round"/>
<path d="M704.463 170.605C709.152 172.676 723.388 176.656 724.108 183.356C724.35 185.614 722.381 186.115 720.434 186.494C716.882 187.186 713.13 186.89 709.503 186.89C703.768 186.89 700.597 177.547 700.122 173.122C699.598 168.242 705.408 163.844 710.263 163.509C716.287 163.094 720.805 164.039 724.684 168.683C727.977 172.625 727.081 180.175 725.11 184.459C723.55 187.847 720.931 190.988 717.306 192.488C712.044 194.666 705.942 193.613 700.395 194.552C698.014 194.955 692.997 195.956 690.922 194.41C686.127 190.838 683.22 186.479 679.87 181.801" stroke="#355C7D" stroke-width="30" stroke-linecap="round"/>
<path d="M709.928 172.132C700.431 170.363 693.321 163.286 686.185 157.77C684.672 156.6 682.864 155.613 681.236 154.575C680.259 153.953 679.352 152.342 678.018 152.342C677.335 152.342 680.25 157.692 680.69 158.42C682.062 160.692 682.396 163.188 683.27 165.63C683.991 167.644 683.622 167.637 682.602 168.824C681.016 170.671 680.748 175.004 677.016 172.641C673.73 170.56 671.049 168.216 668.272 165.63C666.197 163.698 663.986 162.339 662.108 160.201C661.036 158.981 660.992 159.123 662.381 160.201C664.357 161.735 666.381 163.187 668.363 164.725C671.603 167.239 675.196 169.512 677.684 172.754C678.883 174.317 679.668 176.477 680.841 177.843C683.497 180.934 672.584 174.307 670.549 170.832C669.122 168.396 665.662 166.5 663.778 164.244C662.315 162.493 660.062 159.912 658.009 158.788C656.17 157.781 654.795 156.223 653.06 155.112C652.326 154.642 651.072 154.329 650.479 153.699C649.558 152.718 653.051 154.834 654.062 155.734C657.882 159.133 662.964 161.31 666.207 165.29C668.492 168.096 673.098 171.049 674.405 174.394C674.951 175.792 676.51 176.482 677.016 177.843C677.583 179.37 678.777 182.253 678.777 179.285C678.777 172.715 678.693 164.74 682.177 158.901C683.049 157.44 686.143 157.374 687.582 157.374C692.217 157.374 696.852 157.374 701.488 157.374C708.491 157.374 715.495 157.374 722.498 157.374" stroke="#355C7D" stroke-width="30" stroke-linecap="round"/>
<path d="M678.23 174.168C672.041 175.185 665.351 170.134 660.499 167.552C658.316 166.391 657.201 164.968 656.248 162.972C655.692 161.808 655.043 157.774 654.184 157.374" stroke="#355C7D" stroke-width="30" stroke-linecap="round"/>
<path d="M668.94 154.321C662.866 153.533 656.88 152.397 650.935 151.013C648.974 150.556 646.714 150.306 644.893 149.458C642.841 148.502 639.554 147.193 637.545 146.659C635.625 146.148 634.235 144.538 632.323 143.747C630.482 142.985 628.207 142.737 626.311 141.994C621.752 140.206 617.192 140.022 612.375 139.026C609.738 138.48 607.211 138.179 604.451 138.036C602.777 137.949 599.877 137.688 598.439 137.018" stroke="#355C7D" stroke-width="30" stroke-linecap="round"/>
<path d="M726.87 151.776C734.441 151.776 742.011 151.776 749.581 151.776C759.134 151.776 768.358 150.517 777.818 149.627C783.765 149.068 789.779 147.859 795.731 147.705C796.966 147.673 800.589 148.282 801.318 147.196C801.921 146.298 805.56 145.726 806.662 145.669C808.783 145.56 805.3 145.669 804.779 145.669C802.128 145.669 799.476 145.669 796.824 145.669C791.221 145.669 785.759 147.705 780.429 147.705" stroke="#355C7D" stroke-width="30" stroke-linecap="round"/>
<path d="M800.103 144.143C795.708 145.106 791.565 147.849 787.534 149.628C785.166 150.672 782.771 151.704 780.429 152.794C776.4 154.67 771.664 155.075 768.527 157.996C767.3 159.139 766.866 160.958 765.794 162.067C764.761 163.136 763.545 164.809 762.819 166.025C762.042 167.327 758.79 169.695 757.354 170.21C755.249 170.963 753.091 173.67 751.464 175.186C744.662 181.519 738.55 187.746 730.149 192.092C723.374 195.597 715.497 200.679 707.742 197.068" stroke="#355C7D" stroke-width="30" stroke-linecap="round"/>
<path d="M704.463 198.595C705.129 198.672 708.514 200.187 708.957 200.517C710.147 201.404 715.211 200.631 716.73 200.631C721.251 200.631 725.436 199.846 729.33 197.832C735.571 194.603 742.736 192.214 747.213 187.003C749.388 184.472 751.236 181.602 753.407 179.002C756.972 174.734 759.047 169.178 762.09 164.725C765.018 160.441 768.806 156.283 773.871 153.925C775.926 152.969 778.399 152.2 780.733 151.805C784.968 151.088 788.732 148.158 792.453 146.179" stroke="#355C7D" stroke-width="30" stroke-linecap="round"/>
<path d="M767.312 167.552C769.604 165.152 770.259 162.038 772.656 159.806C773.584 158.941 774.632 156.346 774.933 155.084C775.269 153.679 776.993 152.218 778 151.013C779.879 148.763 782.745 147.664 785.226 146.178C788.287 144.346 792.45 144.381 795.519 142.842C798.348 141.424 801.549 140.676 804.476 139.45C809.743 137.243 815.651 135.43 821.418 134.983" stroke="#355C7D" stroke-width="30" stroke-linecap="round"/>
<path d="M809.395 143.125C813.841 143.125 818.041 141.598 822.511 141.598C824.879 141.598 827.247 141.598 829.616 141.598C831.912 141.598 833.959 142.532 836.295 142.616C838.42 142.692 841.931 143.148 843.825 144.03C846.64 145.34 850.022 145.142 852.994 146.065C857.624 147.502 861.609 149.652 865.929 151.663C871.509 154.261 875.101 159.017 879.349 162.972C883.175 166.535 886.539 170.459 890.279 173.941C893.944 177.355 895.913 182.241 899.691 185.759C901.573 187.511 903.949 188.557 905.885 190.17C908.959 192.73 913.214 193.494 916.512 195.541" stroke="#355C7D" stroke-width="30" stroke-linecap="round"/>
<path d="M1032.37 145.161C1026.25 145.528 1019.31 145.502 1013.37 147.083C1012.46 147.325 1010.55 147.705 1009.69 147.705C1007.84 147.705 1004.56 148.453 1002.86 149.119C1000.94 149.874 996.548 149.741 994.39 149.741C991.28 149.741 988.328 150.758 985.13 150.758C975.914 150.758 966.616 151.776 957.379 151.776C944.732 151.776 932.173 151.267 919.548 151.267C913.162 151.267 906.775 151.267 900.389 151.267C896.344 151.267 903.044 156.622 903.942 157.374C905.286 158.5 906.242 159.743 907.524 160.936C908.4 161.751 909.961 163.338 910.5 164.216C911.883 166.47 915.153 168.141 917.483 169.588C920.977 171.756 924.722 171.4 928.535 172.387C934.011 173.803 941.441 172.641 947.116 172.641C951.741 172.641 958.402 173.812 962.844 172.528C966.174 171.566 970.077 171.508 973.349 170.323C977.087 168.969 981.898 169.283 985.373 167.665C987.522 166.664 990.114 166.852 992.204 165.771C993.308 165.2 998.825 163.481 997.396 163.481C992.616 163.481 987.227 166.426 982.944 168.287C979.534 169.769 976.145 171.198 972.803 172.754C968.276 174.861 964.186 176.741 961.022 180.529C959.451 182.411 958.529 184.198 956.407 185.477C955.088 186.272 953.885 187.781 952.46 188.7C950.706 189.83 948.48 190.454 946.54 191.244C938.771 194.409 912.738 193.506 921.218 193.506C925.386 193.506 929.242 195.938 933.454 196.05C936.629 196.135 939.568 196.559 942.744 196.559C945.59 196.559 948.337 196.753 951.064 195.937C952.842 195.405 957.443 194.682 958.047 192.997" stroke="#355C7D" stroke-width="30" stroke-linecap="round"/>
<path d="M1005.05 153.812C1007.23 153.812 1009.42 153.812 1011.61 153.812C1012.96 153.812 1014.3 153.812 1011.88 153.812C1009.74 153.812 1007.03 154.051 1004.93 154.434C996.986 155.88 991.698 159.148 985.676 163.735C983.965 165.039 981.804 166.235 980.454 167.806C979.759 168.616 978.413 168.876 978.268 170.097C978.237 170.357 977.243 172.307 977.053 172.528C974.412 175.603 973.935 180.652 970.343 183.328C968.812 184.468 968.165 187 965.971 187.908C964.027 188.712 962.313 190.492 960.476 191.47C955.698 194.013 950.95 195.478 945.598 196.955C936.417 199.488 926.969 198.595 917.604 198.595" stroke="#355C7D" stroke-width="30" stroke-linecap="round"/>
<path d="M926.349 203.175C934.201 206.424 945.061 204.773 951.489 199.386C955.728 195.834 959.574 191.472 964.059 188.191C966.402 186.476 968.724 183.956 971.436 182.791C972.946 182.142 973.988 180.74 975.535 180.02C977.363 179.169 979.054 177.864 980.575 176.599C984.069 173.695 989.001 171.726 991.931 168.315C993.637 166.329 996.054 164.124 997.943 162.463C1000.99 159.783 1003.97 156.852 1006.96 154.066C1010.6 150.679 1015.28 148.172 1018.16 144.143" stroke="#355C7D" stroke-width="30" stroke-linecap="round"/>
<path d="M265.024 170.586C269.713 172.656 283.949 176.637 284.669 183.337C284.911 185.595 282.942 186.095 280.995 186.475C277.443 187.167 273.691 186.871 270.064 186.871C264.329 186.871 261.158 177.527 260.683 173.102C260.159 168.223 265.969 163.824 270.824 163.49C276.848 163.074 281.366 164.019 285.245 168.663C288.538 172.605 287.642 180.155 285.671 184.439C284.111 187.828 281.492 190.968 277.868 192.468C272.605 194.646 266.503 193.593 260.956 194.532C258.575 194.935 253.558 195.937 251.483 194.391C246.688 190.819 243.781 186.46 240.431 181.782" stroke="#355C7D" stroke-width="30" stroke-linecap="round"/>
<path d="M270.489 172.113C260.992 170.344 253.882 163.266 246.746 157.75C245.233 156.58 243.425 155.593 241.797 154.556C240.82 153.933 239.913 152.322 238.579 152.322C237.896 152.322 240.811 157.673 241.251 158.401C242.623 160.672 242.957 163.168 243.831 165.61C244.552 167.624 244.183 167.617 243.163 168.805C241.577 170.652 241.309 174.984 237.577 172.621C234.291 170.541 231.61 168.196 228.833 165.61C226.758 163.679 224.547 162.319 222.669 160.182C221.597 158.962 221.553 159.104 222.942 160.182C224.918 161.715 226.942 163.167 228.924 164.705C232.164 167.22 235.758 169.492 238.245 172.735C239.444 174.298 240.229 176.457 241.402 177.824C244.058 180.914 233.145 174.287 231.11 170.812C229.683 168.376 226.223 166.481 224.339 164.225C222.877 162.474 220.623 159.892 218.57 158.768C216.731 157.761 215.356 156.203 213.621 155.093C212.887 154.623 211.633 154.31 211.04 153.679C210.119 152.699 213.612 154.815 214.623 155.715C218.443 159.113 223.525 161.291 226.768 165.271C229.053 168.076 233.659 171.029 234.966 174.374C235.512 175.772 237.071 176.463 237.577 177.824C238.144 179.35 239.338 182.233 239.338 179.265C239.338 172.695 239.255 164.721 242.738 158.881C243.61 157.42 246.705 157.355 248.143 157.355C252.778 157.355 257.413 157.355 262.049 157.355C269.052 157.355 276.056 157.355 283.059 157.355" stroke="#355C7D" stroke-width="30" stroke-linecap="round"/>
<path d="M238.791 174.148C232.602 175.165 225.912 170.115 221.06 167.533C218.877 166.371 217.762 164.948 216.809 162.953C216.253 161.788 215.604 157.755 214.745 157.355" stroke="#355C7D" stroke-width="30" stroke-linecap="round"/>
<path d="M229.501 154.301C223.427 153.513 217.441 152.377 211.496 150.993C209.535 150.537 207.275 150.286 205.454 149.438C203.402 148.483 200.115 147.174 198.106 146.639C196.186 146.129 194.796 144.519 192.884 143.727C191.043 142.965 188.768 142.718 186.872 141.975C182.313 140.187 177.753 140.003 172.936 139.006C170.3 138.46 167.772 138.159 165.012 138.016C163.338 137.93 160.438 137.668 159 136.999" stroke="#355C7D" stroke-width="30" stroke-linecap="round"/>
<path d="M287.431 151.757C295.002 151.757 302.572 151.757 310.142 151.757C319.695 151.757 328.919 150.498 338.379 149.608C344.326 149.049 350.34 147.839 356.292 147.685C357.527 147.653 361.15 148.263 361.879 147.177C362.482 146.278 366.121 145.707 367.223 145.65C369.344 145.54 365.861 145.65 365.34 145.65C362.689 145.65 360.037 145.65 357.385 145.65C351.782 145.65 346.32 147.685 340.99 147.685" stroke="#355C7D" stroke-width="30" stroke-linecap="round"/>
<path d="M360.664 144.123C356.269 145.086 352.126 147.83 348.095 149.608C345.728 150.652 343.332 151.684 340.99 152.775C336.961 154.65 332.225 155.055 329.088 157.977C327.861 159.119 327.427 160.939 326.355 162.048C325.322 163.117 324.106 164.789 323.38 166.006C322.603 167.308 319.351 169.676 317.915 170.19C315.81 170.944 313.652 173.65 312.025 175.166C305.223 181.499 299.112 187.727 290.71 192.073C283.935 195.578 276.058 200.659 268.303 197.049" stroke="#355C7D" stroke-width="30" stroke-linecap="round"/>
<path d="M265.024 198.575C265.69 198.653 269.075 200.168 269.518 200.498C270.708 201.385 275.772 200.611 277.291 200.611C281.812 200.611 285.997 199.827 289.891 197.812C296.132 194.584 303.298 192.194 307.774 186.984C309.949 184.452 311.797 181.582 313.968 178.983C317.533 174.714 319.608 169.159 322.652 164.705C325.579 160.422 329.367 156.264 334.432 153.906C336.487 152.949 338.96 152.18 341.294 151.785C345.529 151.068 349.294 148.138 353.014 146.159" stroke="#355C7D" stroke-width="30" stroke-linecap="round"/>
<path d="M327.874 167.533C330.165 165.132 330.82 162.018 333.217 159.786C334.145 158.922 335.193 156.326 335.494 155.065C335.83 153.66 337.555 152.198 338.561 150.993C340.44 148.743 343.306 147.644 345.787 146.159C348.848 144.327 353.011 144.362 356.08 142.823C358.909 141.404 362.11 140.657 365.037 139.43C370.304 137.223 376.212 135.411 381.979 134.963" stroke="#355C7D" stroke-width="30" stroke-linecap="round"/>
<path d="M369.956 143.105C374.402 143.105 378.602 141.579 383.072 141.579C385.44 141.579 387.808 141.579 390.177 141.579C392.473 141.579 394.52 142.513 396.856 142.596C398.981 142.673 402.492 143.128 404.386 144.01C407.201 145.321 410.583 145.123 413.555 146.046C418.185 147.483 422.171 149.633 426.49 151.644C432.07 154.241 435.662 158.997 439.91 162.952C443.736 166.516 447.1 170.439 450.84 173.922C454.505 177.335 456.474 182.222 460.252 185.74C462.134 187.491 464.51 188.537 466.446 190.15C469.52 192.711 473.775 193.474 477.073 195.522" stroke="#355C7D" stroke-width="30" stroke-linecap="round"/>
<path d="M592.934 145.141C586.812 145.509 579.87 145.483 573.927 147.064C573.018 147.305 571.107 147.686 570.254 147.686C568.403 147.686 565.119 148.434 563.422 149.099C561.497 149.854 557.109 149.721 554.951 149.721C551.841 149.721 548.889 150.739 545.691 150.739C536.475 150.739 527.177 151.757 517.94 151.757C505.293 151.757 492.735 151.248 480.109 151.248C473.723 151.248 467.336 151.248 460.95 151.248C456.905 151.248 463.605 156.602 464.503 157.355C465.847 158.481 466.803 159.723 468.085 160.917C468.961 161.732 470.522 163.319 471.061 164.196C472.444 166.45 475.714 168.121 478.044 169.568C481.538 171.737 485.283 171.381 489.096 172.367C494.573 173.784 502.002 172.622 507.678 172.622C512.302 172.622 518.963 173.792 523.405 172.508C526.735 171.546 530.638 171.488 533.91 170.303C537.648 168.95 542.459 169.264 545.934 167.646C548.083 166.645 550.675 166.832 552.765 165.751C553.869 165.181 559.386 163.461 557.957 163.461C553.177 163.461 547.788 166.406 543.505 168.268C540.095 169.749 536.706 171.179 533.364 172.735C528.837 174.842 524.747 176.722 521.583 180.509C520.012 182.391 519.091 184.178 516.968 185.457C515.649 186.252 514.446 187.761 513.021 188.68C511.267 189.811 509.041 190.434 507.101 191.225C499.332 194.389 473.299 193.486 481.779 193.486C485.947 193.486 489.803 195.919 494.015 196.031C497.19 196.115 500.129 196.54 503.305 196.54C506.151 196.54 508.898 196.734 511.625 195.918C513.403 195.385 518.005 194.663 518.608 192.977" stroke="#355C7D" stroke-width="30" stroke-linecap="round"/>
<path d="M565.608 153.792C567.794 153.792 569.98 153.792 572.166 153.792C573.52 153.792 574.858 153.792 572.44 153.792C570.297 153.792 567.587 154.032 565.487 154.414C557.547 155.861 552.259 159.128 546.237 163.716C544.526 165.019 542.365 166.216 541.015 167.787C540.32 168.596 538.975 168.856 538.829 170.077C538.798 170.337 537.804 172.287 537.614 172.508C534.973 175.583 534.496 180.632 530.904 183.308C529.373 184.449 528.726 186.98 526.532 187.888C524.588 188.693 522.874 190.473 521.037 191.451C516.259 193.993 511.511 195.459 506.159 196.935C496.978 199.469 487.53 198.575 478.166 198.575" stroke="#355C7D" stroke-width="30" stroke-linecap="round"/>
<path d="M486.91 203.155C494.762 206.405 505.622 204.753 512.05 199.367C516.289 195.814 520.135 191.452 524.62 188.171C526.963 186.457 529.285 183.937 531.998 182.771C533.507 182.123 534.549 180.721 536.096 180C537.924 179.15 539.615 177.845 541.136 176.58C544.63 173.675 549.562 171.706 552.492 168.296C554.198 166.309 556.615 164.104 558.504 162.444C561.551 159.763 564.53 156.832 567.521 154.047C571.159 150.659 575.84 148.152 578.725 144.123" stroke="#355C7D" stroke-width="30" stroke-linecap="round"/>
<path d="M-73.6055 142.194C-69.1592 142.194 -64.9586 140.667 -60.4891 140.667C-58.1208 140.667 -55.7526 140.667 -53.3844 140.667C-51.0877 140.667 -49.0414 141.601 -46.7047 141.685C-44.5796 141.761 -41.069 142.217 -39.1749 143.098C-36.3597 144.409 -32.9784 144.211 -30.0056 145.134C-25.3756 146.571 -21.3905 148.721 -17.0714 150.732C-11.4914 153.33 -7.89882 158.086 -3.65137 162.041C0.175278 165.604 3.5389 169.528 7.27896 173.01C10.9444 176.423 12.913 181.31 16.6912 184.828C18.5726 186.58 20.949 187.625 22.885 189.238C25.9585 191.799 30.2137 192.563 33.5117 194.61" stroke="#355C7D" stroke-width="30" stroke-linecap="round"/>
<path d="M149.373 144.229C143.251 144.597 136.309 144.571 130.366 146.152C129.457 146.394 127.546 146.774 126.693 146.774C124.842 146.774 121.558 147.522 119.861 148.188C117.936 148.942 113.548 148.81 111.39 148.81C108.28 148.81 105.328 149.827 102.13 149.827C92.9144 149.827 83.6156 150.845 74.3788 150.845C61.7323 150.845 49.1735 150.336 36.5478 150.336C30.1616 150.336 23.7755 150.336 17.3893 150.336C13.3436 150.336 20.0441 155.691 20.9417 156.443C22.2857 157.569 23.2423 158.811 24.5244 160.005C25.3995 160.82 26.9611 162.407 27.4999 163.285C28.8831 165.539 32.1526 167.21 34.4831 168.656C37.9767 170.825 41.7222 170.469 45.5349 171.455C51.0115 172.872 58.4413 171.71 64.1165 171.71C68.7414 171.71 75.4017 172.881 79.844 171.597C83.174 170.634 87.0772 170.576 90.3493 169.392C94.0869 168.038 98.8976 168.352 102.373 166.734C104.522 165.733 107.114 165.921 109.204 164.84C110.308 164.269 115.825 162.55 114.396 162.55C109.616 162.55 104.227 165.495 99.9437 167.356C96.534 168.838 93.1445 170.267 89.8027 171.823C85.2765 173.93 81.1861 175.81 78.0223 179.598C76.4506 181.479 75.5295 183.267 73.4072 184.545C72.0876 185.341 70.8851 186.85 69.4602 187.768C67.7064 188.899 65.4798 189.522 63.5396 190.313C55.7711 193.478 29.7383 192.575 38.2177 192.575C42.3864 192.575 46.2423 195.007 50.4536 195.119C53.6286 195.204 56.5681 195.628 59.7443 195.628C62.5902 195.628 65.3369 195.822 68.0635 195.006C69.8424 194.474 74.4435 193.751 75.0468 192.066" stroke="#355C7D" stroke-width="30" stroke-linecap="round"/>
<path d="M122.047 152.881C124.233 152.881 126.419 152.881 128.605 152.881C129.959 152.881 131.296 152.881 128.879 152.881C126.736 152.881 124.026 153.12 121.926 153.503C113.986 154.949 108.698 158.216 102.676 162.804C100.965 164.108 98.8039 165.304 97.4539 166.875C96.7587 167.684 95.4135 167.945 95.2678 169.165C95.2368 169.425 94.2434 171.376 94.0533 171.597C91.4117 174.672 90.9354 179.721 87.3433 182.397C85.8121 183.537 85.1653 186.069 82.9712 186.977C81.0271 187.781 79.3134 189.561 77.4757 190.539C72.6976 193.081 67.9504 194.547 62.5983 196.024C53.417 198.557 43.9687 197.664 34.6045 197.664" stroke="#355C7D" stroke-width="30" stroke-linecap="round"/>
<path d="M43.3489 202.244C51.201 205.493 62.0612 203.842 68.4886 198.455C72.7277 194.903 76.5739 190.541 81.0585 187.259C83.4019 185.545 85.7242 183.025 88.4365 181.859C89.9455 181.211 90.9883 179.809 92.5354 179.089C94.3629 178.238 96.0535 176.933 97.5755 175.668C101.069 172.763 106.001 170.794 108.931 167.384C110.637 165.398 113.054 163.192 114.943 161.532C117.99 158.852 120.969 155.92 123.96 153.135C127.598 149.747 132.279 147.241 135.164 143.212" stroke="#355C7D" stroke-width="30" stroke-linecap="round"/>
<path d="M1930.22 146.198C1924.05 143.412 1917.47 141.353 1910.67 141.109C1909.15 141.055 1907.89 140.091 1906.3 140.091C1904.97 140.091 1903.65 140.091 1902.32 140.091C1899.81 140.091 1895.21 140.073 1893.06 139.073" stroke="#355C7D" stroke-width="30" stroke-linecap="round"/>
<rect x="-76" width="2036" height="148" fill="#355C7D"/>
</svg>
