<svg width="132" height="100" viewBox="0 0 132 100" fill="none" xmlns="http://www.w3.org/2000/svg">
<path d="M20.9243 43.1564L21.5257 42.7221C22.2831 42.2765 22.8177 42.0538 23.1296 42.0538C23.8202 42.0538 24.5664 42.6775 25.3684 43.925C25.8584 44.7046 26.1035 45.3284 26.1035 45.7962C26.1035 46.264 25.9476 46.6538 25.6357 46.9657C25.3461 47.2776 25.0008 47.556 24.5998 47.801C24.1989 48.0461 23.809 48.28 23.4303 48.5027C23.0739 48.7255 22.3277 49.0151 21.1916 49.3715C20.0555 49.7279 18.9528 49.9062 17.8835 49.9062C16.8366 49.9062 15.7673 49.7725 14.6758 49.5052C13.6065 49.2156 12.4927 48.7478 11.3343 48.1018C10.1982 47.4335 9.17353 46.6315 8.2602 45.6959C7.34688 44.7381 6.58948 43.524 5.98802 42.0538C5.40884 40.5613 5.11925 38.9462 5.11925 37.2087C5.11925 35.4711 5.40884 33.9007 5.98802 32.4973C6.56721 31.0716 7.30232 29.9021 8.19337 28.9887C9.1067 28.0531 10.1425 27.2735 11.3009 26.6497C13.484 25.4468 15.6782 24.8454 17.8835 24.8454C18.9305 24.8454 19.9887 25.0124 21.0579 25.3466C22.1495 25.6584 22.9737 25.9814 23.5306 26.3156L24.3325 26.7834C24.7335 27.0284 25.0454 27.2289 25.2681 27.3848C25.8473 27.8527 26.1369 28.3873 26.1369 28.9887C26.1369 29.5679 25.903 30.1805 25.4352 30.8265C24.5664 32.0294 23.7868 32.6309 23.0962 32.6309C22.6952 32.6309 22.1272 32.3859 21.3921 31.8958C20.4565 31.1384 19.209 30.7597 17.6496 30.7597C16.2017 30.7597 14.776 31.2609 13.3726 32.2634C12.7043 32.7534 12.1474 33.444 11.7019 34.335C11.2564 35.2261 11.0336 36.2397 11.0336 37.3758C11.0336 38.4896 11.2564 39.492 11.7019 40.383C12.1474 41.2741 12.7155 41.9758 13.406 42.4882C14.7649 43.4683 16.1794 43.9584 17.6496 43.9584C18.3402 43.9584 18.9862 43.8693 19.5877 43.6911C20.2114 43.5129 20.6569 43.3347 20.9243 43.1564ZM39.7937 24.7785C43.0906 24.7785 45.9531 25.9703 48.3812 28.3539C50.8093 30.7374 52.0234 33.7002 52.0234 37.2421C52.0234 40.7617 50.865 43.769 48.5483 46.264C46.2316 48.7366 43.3802 49.973 39.9942 49.973C36.6082 49.973 33.7234 48.7478 31.3399 46.2974C28.9786 43.847 27.798 40.9288 27.798 37.5428C27.798 35.6939 28.1321 33.9675 28.8004 32.3636C29.4687 30.7374 30.3597 29.3786 31.4735 28.287C32.5874 27.1955 33.8682 26.3379 35.3162 25.7141C36.7642 25.0904 38.2567 24.7785 39.7937 24.7785ZM33.7123 37.3758C33.7123 39.3583 34.3472 40.9734 35.6169 42.2208C36.909 43.446 38.3458 44.0586 39.9274 44.0586C41.509 44.0586 42.9347 43.4572 44.2044 42.2543C45.4742 41.0513 46.109 39.4363 46.109 37.4092C46.109 35.382 45.463 33.7559 44.171 32.5307C42.9013 31.3055 41.4756 30.6929 39.894 30.6929C38.3124 30.6929 36.8867 31.3166 35.6169 32.5641C34.3472 33.7893 33.7123 35.3932 33.7123 37.3758ZM65.7029 24.7785C68.9998 24.7785 71.8623 25.9703 74.2904 28.3539C76.7185 30.7374 77.9326 33.7002 77.9326 37.2421C77.9326 40.7617 76.7742 43.769 74.4575 46.264C72.1408 48.7366 69.2894 49.973 65.9034 49.973C62.5174 49.973 59.6327 48.7478 57.2491 46.2974C54.8878 43.847 53.7072 40.9288 53.7072 37.5428C53.7072 35.6939 54.0413 33.9675 54.7096 32.3636C55.3779 30.7374 56.2689 29.3786 57.3828 28.287C58.4966 27.1955 59.7774 26.3379 61.2254 25.7141C62.6734 25.0904 64.1659 24.7785 65.7029 24.7785ZM59.6215 37.3758C59.6215 39.3583 60.2564 40.9734 61.5261 42.2208C62.8182 43.446 64.255 44.0586 65.8366 44.0586C67.4182 44.0586 68.8439 43.4572 70.1136 42.2543C71.3834 41.0513 72.0183 39.4363 72.0183 37.4092C72.0183 35.382 71.3722 33.7559 70.0802 32.5307C68.8105 31.3055 67.3848 30.6929 65.8032 30.6929C64.2216 30.6929 62.7959 31.3166 61.5261 32.5641C60.2564 33.7893 59.6215 35.3932 59.6215 37.3758ZM90.6097 37.2755C94.018 40.5501 96.435 43.0116 97.8606 44.6601C98.5957 45.4843 98.9633 46.186 98.9633 46.7652C98.9633 47.3221 98.5178 47.9904 97.6267 48.7701C96.7357 49.5275 96.0006 49.9062 95.4214 49.9062C94.8645 49.9062 94.185 49.4383 93.3831 48.5027L86.0319 40.1157V46.6315C86.0319 47.1662 86.0097 47.556 85.9651 47.801C85.9428 48.0461 85.8426 48.3357 85.6644 48.6698C85.3525 49.2713 84.4837 49.572 83.0581 49.572C81.4987 49.572 80.5854 49.1488 80.3181 48.3023C80.1844 47.9458 80.1176 47.3778 80.1176 46.5981V28.0197C80.1176 27.5074 80.1287 27.1287 80.151 26.8836C80.1956 26.6163 80.3069 26.3156 80.4851 25.9814C80.797 25.38 81.6658 25.0793 83.0915 25.0793C84.6508 25.0793 85.5753 25.4914 85.8649 26.3156C85.9762 26.6943 86.0319 27.2735 86.0319 28.0531V34.4353C89.0615 31.027 91.5119 28.2313 93.3831 26.0483C94.1628 25.1349 94.8422 24.6783 95.4214 24.6783C96.0006 24.6783 96.7357 25.0681 97.6267 25.8478C98.5178 26.6052 98.9633 27.2735 98.9633 27.8527C98.9633 28.4096 98.6292 29.0778 97.9609 29.8575C96.6689 31.35 94.664 33.3994 91.9463 36.0058L90.6097 37.2755Z" fill="#E8E5D7"/>
<path d="M17.7462 41.1581L18.3876 40.6949C19.1953 40.2197 19.7655 39.9822 20.0981 39.9822C20.8345 39.9822 21.6304 40.6473 22.4856 41.9777C23.0082 42.8092 23.2696 43.4744 23.2696 43.9733C23.2696 44.4721 23.1033 44.8879 22.7707 45.2205C22.4618 45.5531 22.0936 45.85 21.666 46.1114C21.2384 46.3727 20.8226 46.6221 20.4188 46.8597C20.0387 47.0972 19.2428 47.4061 18.0312 47.7862C16.8197 48.1663 15.6437 48.3563 14.5034 48.3563C13.3868 48.3563 12.2465 48.2138 11.0824 47.9287C9.94213 47.6199 8.7543 47.121 7.51896 46.4321C6.30737 45.7194 5.21457 44.8641 4.24055 43.8664C3.26653 42.8448 2.45881 41.5501 1.81738 39.9822C1.19971 38.3905 0.890872 36.6681 0.890872 34.8151C0.890872 32.9621 1.19971 31.2872 1.81738 29.7906C2.43505 28.2702 3.21902 27.0229 4.16928 26.0489C5.1433 25.0511 6.24798 24.2197 7.48332 23.5545C9.81147 22.2716 12.1515 21.6302 14.5034 21.6302C15.62 21.6302 16.7484 21.8084 17.8887 22.1647C19.0528 22.4973 19.9318 22.8418 20.5257 23.1981L21.3809 23.697C21.8085 23.9583 22.1411 24.1722 22.3787 24.3384C22.9964 24.8373 23.3052 25.4075 23.3052 26.0489C23.3052 26.6666 23.0558 27.3199 22.5569 28.0088C21.6304 29.2917 20.7989 29.9331 20.0624 29.9331C19.6348 29.9331 19.029 29.6718 18.2451 29.1492C17.2473 28.3414 15.9169 27.9376 14.2539 27.9376C12.7098 27.9376 11.1893 28.4721 9.69268 29.5411C8.97999 30.0638 8.38607 30.8002 7.91094 31.7505C7.43581 32.7008 7.19824 33.7817 7.19824 34.9933C7.19824 36.1811 7.43581 37.2501 7.91094 38.2004C8.38607 39.1507 8.99187 39.899 9.72832 40.4454C11.1775 41.4907 12.686 42.0133 14.2539 42.0133C14.9904 42.0133 15.6793 41.9183 16.3208 41.7283C16.986 41.5382 17.4611 41.3482 17.7462 41.1581ZM37.8696 21.5589C41.3855 21.5589 44.4383 22.8299 47.0277 25.3719C49.6172 27.9138 50.9119 31.0734 50.9119 34.8507C50.9119 38.6043 49.6766 41.8114 47.2059 44.4721C44.7352 47.1091 41.6944 48.4276 38.0834 48.4276C34.4724 48.4276 31.3959 47.121 28.8539 44.5078C26.3357 41.8946 25.0766 38.7824 25.0766 35.1714C25.0766 33.1997 25.433 31.3585 26.1457 29.648C26.8584 27.9138 27.8087 26.4647 28.9965 25.3006C30.1843 24.1365 31.5503 23.2219 33.0945 22.5567C34.6387 21.8915 36.2304 21.5589 37.8696 21.5589ZM31.384 34.9933C31.384 37.1076 32.0611 38.83 33.4152 40.1603C34.7931 41.4669 36.3254 42.1202 38.0121 42.1202C39.6988 42.1202 41.2192 41.4788 42.5734 40.196C43.9275 38.9131 44.6046 37.1908 44.6046 35.0289C44.6046 32.8671 43.9156 31.1328 42.5377 29.8262C41.1836 28.5196 39.6632 27.8663 37.9765 27.8663C36.2898 27.8663 34.7693 28.5315 33.4152 29.8619C32.0611 31.1685 31.384 32.8789 31.384 34.9933ZM65.5005 21.5589C69.0165 21.5589 72.0692 22.8299 74.6587 25.3719C77.2481 27.9138 78.5429 31.0734 78.5429 34.8507C78.5429 38.6043 77.3075 41.8114 74.8368 44.4721C72.3662 47.1091 69.3253 48.4276 65.7143 48.4276C62.1033 48.4276 59.0268 47.121 56.4849 44.5078C53.9667 41.8946 52.7076 38.7824 52.7076 35.1714C52.7076 33.1997 53.0639 31.3585 53.7766 29.648C54.4893 27.9138 55.4396 26.4647 56.6274 25.3006C57.8153 24.1365 59.1813 23.2219 60.7254 22.5567C62.2696 21.8915 63.8613 21.5589 65.5005 21.5589ZM59.015 34.9933C59.015 37.1076 59.692 38.83 61.0462 40.1603C62.424 41.4669 63.9563 42.1202 65.643 42.1202C67.3298 42.1202 68.8502 41.4788 70.2043 40.196C71.5584 38.9131 72.2355 37.1908 72.2355 35.0289C72.2355 32.8671 71.5466 31.1328 70.1687 29.8262C68.8146 28.5196 67.2941 27.8663 65.6074 27.8663C63.9207 27.8663 62.4003 28.5315 61.0462 29.8619C59.692 31.1685 59.015 32.8789 59.015 34.9933ZM92.0624 34.8864C95.6972 38.3786 98.2748 41.0037 99.7952 42.7617C100.579 43.6407 100.971 44.389 100.971 45.0067C100.971 45.6006 100.496 46.3133 99.5457 47.1448C98.5955 47.9525 97.8115 48.3563 97.1938 48.3563C96.5999 48.3563 95.8753 47.8575 95.0201 46.8597L87.1804 37.9153V44.8641C87.1804 45.4343 87.1567 45.85 87.1092 46.1114C87.0854 46.3727 86.9785 46.6815 86.7884 47.0379C86.4559 47.6793 85.5293 48 84.0089 48C82.346 48 81.3719 47.5486 81.0869 46.6459C80.9443 46.2658 80.8731 45.66 80.8731 44.8285V25.0155C80.8731 24.4691 80.8849 24.0652 80.9087 23.8039C80.9562 23.5188 81.075 23.1981 81.265 22.8418C81.5976 22.2004 82.5241 21.8796 84.0446 21.8796C85.7075 21.8796 86.6934 22.3191 87.0023 23.1981C87.121 23.602 87.1804 24.2197 87.1804 25.0511V31.8574C90.4113 28.2226 93.0245 25.2412 95.0201 22.9131C95.8516 21.939 96.5762 21.452 97.1938 21.452C97.8115 21.452 98.5955 21.8678 99.5457 22.6992C100.496 23.507 100.971 24.2197 100.971 24.8373C100.971 25.4312 100.615 26.1439 99.9021 26.9754C98.5242 28.5671 96.3861 30.7527 93.4878 33.5322L92.0624 34.8864Z" fill="#706F69"/>
<path d="M38.3673 59.7428C38.3673 59.27 38.3776 58.9206 38.3981 58.6945C38.4392 58.4478 38.542 58.1703 38.7064 57.862C38.9942 57.307 39.7959 57.0295 41.1114 57.0295C42.5503 57.0295 43.4033 57.4098 43.6705 58.1703C43.7733 58.5198 43.8247 59.0542 43.8247 59.7736V76.9166C43.8247 77.4099 43.8041 77.7696 43.763 77.9957C43.7424 78.2219 43.65 78.4891 43.4855 78.7974C43.1977 79.3524 42.3961 79.6299 41.0806 79.6299C39.6417 79.6299 38.7989 79.2393 38.5523 78.4582C38.4289 78.1294 38.3673 77.6052 38.3673 76.8858V59.7428ZM47.7662 56.9987H64.9092C65.567 56.9987 66.05 57.0809 66.3583 57.2453C66.6666 57.3892 66.8722 57.6256 66.975 57.9545C67.0778 58.2834 67.1291 58.715 67.1291 59.2495C67.1291 59.7839 67.0778 60.2156 66.975 60.5444C66.8722 60.8528 66.6975 61.0686 66.4508 61.1919C66.0808 61.3769 65.5567 61.4694 64.8784 61.4694H58.9893V76.9783C58.9893 77.451 58.9687 77.8005 58.9276 78.0266C58.9071 78.2527 58.8146 78.5199 58.6501 78.8282C58.5063 79.116 58.239 79.3216 57.8485 79.4449C57.4579 79.5682 56.9441 79.6299 56.3069 79.6299C55.6696 79.6299 55.1558 79.5682 54.7652 79.4449C54.3952 79.3216 54.128 79.116 53.9636 78.8282C53.8197 78.5199 53.7272 78.2527 53.6861 78.0266C53.6655 77.7799 53.6552 77.4202 53.6552 76.9474V61.4694H47.7354C47.0776 61.4694 46.5946 61.3975 46.2862 61.2536C45.9779 61.0891 45.7723 60.8425 45.6696 60.5136C45.5668 60.1847 45.5154 59.7531 45.5154 59.2186C45.5154 58.6842 45.5668 58.2628 45.6696 57.9545C45.7723 57.6256 45.9471 57.3995 46.1937 57.2762C46.5637 57.0912 47.0879 56.9987 47.7662 56.9987Z" fill="#E8E5D7"/>
<path d="M36.3153 55.7913C36.3153 55.2872 36.3262 54.9145 36.3481 54.6734C36.392 54.4103 36.5016 54.1144 36.677 53.7856C36.9839 53.1937 37.8388 52.8978 39.2417 52.8978C40.7762 52.8978 41.6859 53.3033 41.9709 54.1144C42.0805 54.487 42.1353 55.057 42.1353 55.8242V74.1064C42.1353 74.6325 42.1134 75.0161 42.0695 75.2573C42.0476 75.4984 41.949 75.7834 41.7736 76.1122C41.4667 76.7041 40.6118 77 39.2088 77C37.6744 77 36.7756 76.5835 36.5126 75.7505C36.381 75.3998 36.3153 74.8408 36.3153 74.0735V55.7913ZM46.3388 52.8649H64.621C65.3224 52.8649 65.8376 52.9526 66.1664 53.1279C66.4952 53.2814 66.7144 53.5335 66.824 53.8842C66.9336 54.235 66.9884 54.6953 66.9884 55.2652C66.9884 55.8352 66.9336 56.2955 66.824 56.6463C66.7144 56.9751 66.5281 57.2053 66.265 57.3368C65.8705 57.5341 65.3115 57.6327 64.5881 57.6327H58.3077V74.1722C58.3077 74.6764 58.2858 75.049 58.2419 75.2902C58.22 75.5313 58.1213 75.8163 57.946 76.1451C57.7925 76.452 57.5076 76.6712 57.0911 76.8027C56.6746 76.9342 56.1265 77 55.447 77C54.7674 77 54.2194 76.9342 53.8029 76.8027C53.4083 76.6712 53.1233 76.452 52.948 76.1451C52.7945 75.8163 52.6959 75.5313 52.652 75.2902C52.6301 75.0271 52.6192 74.6435 52.6192 74.1393V57.6327H46.3059C45.6044 57.6327 45.0893 57.556 44.7604 57.4026C44.4316 57.2272 44.2124 56.9641 44.1028 56.6134C43.9932 56.2627 43.9384 55.8023 43.9384 55.2324C43.9384 54.6624 43.9932 54.213 44.1028 53.8842C44.2124 53.5335 44.3987 53.2923 44.6618 53.1608C45.0564 52.9635 45.6154 52.8649 46.3388 52.8649Z" fill="#706F69"/>
<path d="M100.481 67.772C101.204 66.9493 102.082 66.4966 103.116 66.414C104.198 66.3438 105.757 66.5763 107.793 67.1113C109.877 67.6589 111.251 68.5007 111.914 69.637C112.625 70.7856 112.725 72.3308 112.215 74.2724L111.916 75.409C111.617 76.5455 111.346 77.3855 111.102 77.9289C110.918 78.4374 110.537 79.0207 109.959 79.6789C108.84 80.8531 106.836 81.0607 103.948 80.3016C101.106 79.555 99.3302 78.6074 98.6195 77.4587C97.9686 76.2751 97.9915 74.3574 98.6884 71.7054C99.1737 69.8584 99.7714 68.5473 100.481 67.772ZM112.184 61.962C111.222 61.9624 109.983 61.7635 108.468 61.3653C106.952 60.967 105.776 60.5313 104.938 60.0581C104.101 59.5849 103.574 58.9907 103.356 58.2755C103.187 57.5728 103.117 56.9722 103.146 56.4737C103.223 55.9877 103.393 55.2474 103.654 54.2529L109.571 31.7347C109.832 30.7402 110.049 30.0124 110.221 29.5513C110.452 29.0552 110.838 28.5492 111.379 28.0331C111.92 27.517 112.671 27.2588 113.633 27.2584C114.607 27.2107 115.852 27.3859 117.368 27.7841C118.883 28.1823 120.054 28.6417 120.879 29.1623C121.716 29.6355 122.214 30.2472 122.371 30.9973C122.588 31.7125 122.652 32.3368 122.562 32.8701C122.533 33.3686 122.387 34.1151 122.126 35.1096L116.209 57.6278C115.947 58.6223 115.707 59.3439 115.488 59.7926C115.316 60.2537 114.96 60.7423 114.419 61.2584C113.891 61.7271 113.146 61.9617 112.184 61.962Z" fill="#E8E5D7"/>
<path d="M98.6422 62.9851C99.4126 62.1078 100.349 61.625 101.452 61.5369C102.606 61.4621 104.268 61.71 106.44 62.2806C108.662 62.8645 110.127 63.7623 110.834 64.9741C111.592 66.1991 111.699 67.8469 111.155 69.9175L110.837 71.1296C110.518 72.3417 110.229 73.2375 109.969 73.817C109.772 74.3593 109.366 74.9814 108.749 75.6833C107.556 76.9356 105.42 77.157 102.339 76.3474C99.3086 75.5512 97.4145 74.5406 96.6566 73.3156C95.9624 72.0534 95.9869 70.0081 96.7301 67.1799C97.2476 65.2103 97.885 63.812 98.6422 62.9851ZM111.122 56.7891C110.097 56.7895 108.776 56.5773 107.159 56.1527C105.543 55.728 104.289 55.2634 103.395 54.7587C102.502 54.254 101.94 53.6203 101.708 52.8576C101.527 52.1082 101.453 51.4677 101.484 50.9361C101.567 50.4178 101.747 49.6283 102.026 48.5677L108.336 24.5531C108.615 23.4925 108.846 22.7163 109.029 22.2246C109.276 21.6956 109.688 21.1559 110.264 20.6055C110.841 20.0551 111.642 19.7797 112.668 19.7793C113.707 19.7285 115.035 19.9154 116.651 20.34C118.267 20.7647 119.515 21.2546 120.395 21.8098C121.288 22.3144 121.819 22.9667 121.986 23.7667C122.218 24.5294 122.286 25.1952 122.19 25.764C122.159 26.2956 122.003 27.0917 121.725 28.1522L115.415 52.1669C115.136 53.2275 114.88 53.997 114.646 54.4755C114.463 54.9673 114.083 55.4883 113.506 56.0387C112.943 56.5386 112.148 56.7887 111.122 56.7891Z" fill="#E95353"/>
</svg>
