<svg width="280" height="296" viewBox="0 0 280 296" fill="none" xmlns="http://www.w3.org/2000/svg">
<path d="M210.724 226.192C210.486 226.192 210.107 226.145 209.775 225.765L176.085 188.897C175.801 188.565 175.753 188.185 175.753 187.948C175.753 187.711 175.848 187.331 176.18 187.046L180.119 183.44C180.403 183.155 180.783 183.108 180.973 183.108C181.21 183.108 181.59 183.155 181.922 183.535L215.611 220.403C215.896 220.735 215.943 221.115 215.943 221.352C215.943 221.59 215.848 221.969 215.516 222.254L211.625 225.86C211.293 226.145 210.961 226.192 210.724 226.192Z" fill="#383838"/>
<path d="M180.973 178.79C179.597 178.79 178.268 179.265 177.177 180.261L173.238 183.867C170.961 185.955 170.771 189.514 172.859 191.839L206.548 228.707C207.639 229.941 209.205 230.558 210.724 230.558C212.1 230.558 213.428 230.083 214.52 229.087L218.458 225.48C220.735 223.393 220.925 219.834 218.837 217.509L185.148 180.641C184.057 179.407 182.491 178.79 180.973 178.79Z" fill="#5E5E5E"/>
<path d="M102.776 199.526C89.4425 199.526 76.5362 196.868 64.3416 191.601C51.72 186.145 40.6168 178.221 31.2693 168.019C13.8078 148.944 4.88728 124.176 6.02607 98.363C7.21231 72.5504 18.363 48.6833 37.4377 31.2693C55.3262 14.9466 78.4816 5.9312 102.681 5.9312C116.014 5.9312 128.921 8.58838 141.115 13.8553C153.737 19.312 164.84 27.2361 174.187 37.4377C210.202 76.8209 207.402 138.173 168.019 174.187C150.13 190.51 126.975 199.526 102.776 199.526Z" fill="#5E5E5E"/>
<path d="M102.681 11.8624C115.208 11.8624 127.307 14.3772 138.743 19.312C150.558 24.4365 160.997 31.8861 169.775 41.4709C186.145 59.4069 194.543 82.6097 193.452 106.856C192.361 131.103 181.874 153.452 163.986 169.822C147.189 185.148 125.457 193.594 102.728 193.594C90.2018 193.594 78.0547 191.08 66.6668 186.145C54.8518 181.02 44.4129 173.571 35.6347 163.986C19.2646 146.097 10.866 122.894 11.9574 98.6477C13.0487 74.401 23.5351 52.0522 41.4236 35.6821C58.2207 20.3084 80.0001 11.8624 102.681 11.8624ZM102.681 0C77.9598 0 53.1436 8.87307 33.452 26.9039C-8.44595 65.1483 -11.3878 130.107 26.904 172.005C47.165 194.211 74.923 205.457 102.776 205.457C127.497 205.457 152.313 196.584 172.052 178.553C213.95 140.308 216.892 75.3025 178.6 33.4045C158.292 11.2456 130.534 0 102.681 0Z" fill="#383838"/>
<path d="M177.04 167.86L160.925 182.582L168.287 190.64L184.401 175.917L177.04 167.86Z" fill="#5E5E5E"/>
<path d="M177.034 161.898C175.658 161.898 174.235 162.42 173.144 163.416L156.821 178.316C154.448 180.498 154.306 184.152 156.441 186.524L163.986 194.781C165.125 196.014 166.69 196.679 168.256 196.679C169.632 196.679 171.056 196.157 172.147 195.16L188.47 180.261C190.842 178.078 190.985 174.425 188.849 172.052L181.305 163.796C180.166 162.562 178.6 161.898 177.034 161.898Z" fill="#383838"/>
<path d="M263.867 286.928C261.637 286.928 259.597 286.026 258.078 284.365L196.773 217.319L208.351 206.738L269.656 273.832C271.079 275.397 271.791 277.39 271.696 279.478C271.601 281.566 270.7 283.511 269.134 284.887C267.711 286.216 265.813 286.928 263.867 286.928Z" fill="#383838"/>
<path d="M208.541 197.343C207.165 197.343 205.836 197.817 204.745 198.814L189.229 212.954C186.951 215.042 186.762 218.6 188.849 220.925L251.957 290.012C255.136 293.476 259.502 295.279 263.867 295.279C267.758 295.279 271.649 293.903 274.733 291.056C281.329 285.03 281.756 274.828 275.777 268.28L212.669 199.193C211.578 197.96 210.059 197.343 208.541 197.343Z" fill="#BA8350"/>
</svg>
